<svg xmlns="http://www.w3.org/2000/svg" width="250" height="250" viewBox="0 0 250 250"><path fill="#FFF" stroke="#000" stroke-width="3" stroke-miterlimit="10" d="M-2013.154-1169.81l-200 170.156-200-170.158 200-170.152z"/><path fill="#F7901E" d="M-1814.383-1271.5l-32.79 260.536 284.703-186.427-251.913-74.11zm40.07 60.21l100.766 29.645-113.88 74.57 13.115-104.214z"/><path fill="#D32E2E" d="M-1574.666-1100.49l12.196-96.9-284.703 186.426 251.913 74.106 9.67-76.843-24.75 21.486-124.68-32.864 141.677-98.398"/><g><path fill="#F7901E" d="M-2274.383-783.5l-32.79 260.536 284.703-186.427-251.913-74.11zm40.07 60.21l100.766 29.646-113.88 74.57 13.115-104.215z"/><path fill="#D32E2E" d="M-2034.666-612.488l12.196-96.903-284.703 186.426 251.913 74.106 9.67-76.843-24.75 21.486-124.68-32.864 141.677-98.4"/></g><g><path fill="#FAFBFB" d="M240.347 57.253L56.917 4.688l.375 1.375-.875.937-31.25 191.155 215.18-140.902zM80.217 46.748l76.167 22.407L70.3 125.523l9.916-78.775z"/><path fill="#BDBDBD" d="M9.665 199.72h.01l210.667 50.056-190.138-55.944"/><path fill="#ED6D23" d="M-2274.746-780.615l-59.603 265.458 27.208-7.798"/><path fill="#B72025" d="M-2307.126-522.964l-27.207 7.798 279.073 66.308"/><path fill="#F7901E" d="M-1259.305-1216.002l-32.79 260.536 284.703-186.427-251.913-74.11zm40.072 60.21l100.765 29.644-113.88 74.57 13.115-104.214z"/><path fill="#D32E2E" d="M-1019.588-1044.99l12.196-96.903-284.703 186.427 251.913 74.105 9.67-76.844-24.75 21.488-124.68-32.865 141.677-98.4"/><path fill="#F7901E" d="M-1259.305-835.997l-32.79 260.536 284.703-186.428-251.913-74.11zm40.072 60.21l100.765 29.646-113.88 74.57 13.115-104.216z"/><path fill="#D32E2E" d="M-1019.588-664.985l12.196-96.903-284.703 186.427 251.913 74.105 9.67-76.843-24.75 21.487-124.68-32.865 141.677-98.4"/><path fill="#ED6D23" d="M-1259.668-833.112l-59.603 265.458 27.207-7.798"/><path fill="#B72025" d="M-1292.048-575.46l-27.207 7.797 279.073 66.308"/><path fill="#D32E2E" d="M-842.275-1216.002l-32.79 260.536 284.703-186.427-251.913-74.11zm40.07 60.21l100.766 29.644-113.88 74.57 13.116-104.214z"/><path fill="#F9A01B" d="M-602.56-1044.99l12.198-96.903-284.703 186.427 251.913 74.105 9.67-76.844-24.75 21.488-124.68-32.865 141.677-98.4"/><path fill="#D32E2E" d="M-842.275-835.997l-32.79 260.536 284.703-186.428-251.913-74.11zm40.07 60.21l100.766 29.646-113.88 74.57 13.116-104.216z"/><path fill="#F8981D" d="M-602.56-664.985l12.198-96.903-284.703 186.427 251.913 74.105 9.67-76.843-24.75 21.487-124.68-32.865 141.677-98.4"/><path fill="#B72025" d="M-842.64-833.112l-59.6 265.458 27.206-7.798"/><path fill="#ED6D23" d="M-875.02-575.46l-27.206 7.797 279.074 66.308"/><path fill="#434343" d="M-425.246-1216.002l-32.79 260.536 284.703-186.427-251.913-74.11zm40.07 60.21l100.766 29.644-113.88 74.57 13.115-104.214z"/><path fill="#D32E2E" d="M-185.53-1044.99l12.197-96.903-284.703 186.427 251.913 74.105 9.67-76.844-24.75 21.488-124.68-32.865 141.677-98.4"/><path fill="#434343" d="M-425.246-835.997l-32.79 260.536 284.703-186.428-251.913-74.11zm40.07 60.21l100.766 29.646-113.88 74.57 13.115-104.216z"/><path fill="#D32E2E" d="M-185.53-664.985l12.197-96.903-284.703 186.427 251.913 74.105 9.67-76.843-24.75 21.487-124.68-32.865 141.677-98.4"/><path fill="#212121" d="M-425.61-833.112l-59.602 265.458 27.207-7.798"/><path fill="#B72025" d="M-457.99-575.46l-27.206 7.797 279.073 66.308"/><path fill="#488FCC" d="M18.633-1216.002l-32.79 260.536 284.703-186.427-251.913-74.11zm40.07 60.21l100.766 29.644-113.882 74.57 13.116-104.214z"/><path fill="#33439B" d="M258.35-1044.99l12.196-96.903-284.703 186.427 251.913 74.105 9.67-76.844-24.75 21.488-124.68-32.865 141.677-98.4"/><path fill="#488FCC" d="M18.633-835.997l-32.79 260.536L270.546-761.89l-251.913-74.11zm40.07 60.21L159.47-746.14 45.587-671.57l13.116-104.216z"/><path fill="#33439B" d="M258.35-664.985l12.196-96.903L-14.157-575.46l251.913 74.105 9.67-76.843-24.75 21.487-124.68-32.865 141.677-98.4"/><path fill="#2B66B1" d="M18.27-833.112l-59.603 265.458 27.207-7.798"/><path fill="#2D3079" d="M-14.11-575.46l-27.207 7.797 279.073 66.308"/><path fill="#488FCC" d="M-237.354 1.234L-261.61 193.95-51.017 56.052-237.354 1.234zm29.64 44.538L-133.18 67.7l-84.237 55.158 9.702-77.086z"/><path fill="#33439B" d="M-60.04 127.73l9.022-71.678-210.59 137.898 186.336 54.816 7.153-56.84-18.306 15.893-92.225-24.31 104.796-72.784"/><path fill="#2B66B1" d="M-237.623 3.37l-44.088 196.356 20.124-5.77"/><path fill="#2D3079" d="M-261.574 193.95l-20.125 5.768 206.428 49.048"/><g><path fill="#2C98D4" d="M435.662-1216.002l-32.79 260.536 284.703-186.427-251.913-74.11zm40.07 60.21l100.766 29.644-113.88 74.57 13.115-104.214z"/></g><g><path fill="#B8D54B" d="M675.38-1044.99l12.195-96.903-284.703 186.427 251.913 74.105 9.67-76.844-24.75 21.488-124.68-32.865 141.677-98.4"/></g><g><path fill="#2C98D4" d="M435.662-835.997l-32.79 260.536L687.575-761.89l-251.913-74.11zm40.07 60.21L576.5-746.14l-113.88 74.57 13.115-104.216z"/></g><g><path fill="#B8D54B" d="M675.38-664.985l12.195-96.903L402.872-575.46l251.913 74.105 9.67-76.843-24.75 21.487-124.68-32.865 141.677-98.4"/></g><path fill="#0277BD" d="M435.3-833.112l-59.604 265.458 27.207-7.798"/><path fill="#7CB342" d="M402.92-575.46l-27.208 7.797 279.073 66.308"/><g><path fill="#8BC249" d="M852.69-1216.002L819.9-955.466l284.704-186.427-251.913-74.11zm40.073 60.21l100.765 29.644-113.88 74.57 13.115-104.214z"/></g><g><path fill="#00796B" d="M1092.408-1044.99l12.196-96.903L819.9-955.466l251.914 74.105 9.67-76.844-24.75 21.488-124.68-32.865 141.677-98.4"/></g><g><path fill="#8BC249" d="M852.69-835.997L819.9-575.46l284.704-186.428-251.913-74.11zm40.073 60.21l100.765 29.646-113.88 74.57 13.115-104.216z"/></g><g><path fill="#00796B" d="M1092.408-664.985l12.196-96.903L819.9-575.46l251.914 74.105 9.67-76.843-24.75 21.487-124.68-32.865 141.677-98.4"/></g><path fill="#679F42" d="M852.328-833.112l-59.602 265.458 27.207-7.798"/><path fill="#014D41" d="M819.948-575.46l-27.207 7.797 279.074 66.308"/><g><path fill="none" d="M83.65 45.772l-9.703 77.086 84.238-55.16"/><path fill="#EEE" d="M53.74 3.37"/><path fill="none" d="M83.65 45.772l-9.703 77.086 84.238-55.16"/><path fill="none" d="M83.65 45.772l-9.703 77.086 84.238-55.16"/><path fill="#FAFBFB" d="M240.347 56.052L54.01 1.234l-.27 2.136-23.96 190.563 210.567-137.88zM83.65 45.772L158.183 67.7l-84.237 55.158 9.702-77.086z"/><path fill="#EEE" d="M231.324 127.73l9.023-71.678L29.78 193.932 53.74 3.373 9.654 199.725l.02-.006-.008-.002 20.125-5.768 186.302 54.816 7.153-56.84-18.307 15.893-92.225-24.31 104.797-72.784"/><path fill="#BDBDBD" d="M9.665 199.718l.01.002 206.417 49.046L29.79 193.95"/></g></g></svg>