<?xml version="1.0" encoding="utf-8"?>
<!-- Generator: Adobe Illustrator 15.0.0, SVG Export Plug-In . SVG Version: 6.00 Build 0)  -->
<!DOCTYPE svg PUBLIC "-//W3C//DTD SVG 1.1//EN" "http://www.w3.org/Graphics/SVG/1.1/DTD/svg11.dtd">
<svg version="1.1" xmlns="http://www.w3.org/2000/svg" xmlns:xlink="http://www.w3.org/1999/xlink" x="0px" y="0px" width="250px"
	 height="250px" viewBox="0 0 250 250" enable-background="new 0 0 250 250" xml:space="preserve">
<g id="Layer_2">
</g>
<g id="Layer_1">
	<polygon fill="#FFFFFF" stroke="#000000" stroke-width="3" stroke-miterlimit="10" points="-2013.154,-1169.81 -2213.153,-999.654 
		-2413.154,-1169.812 -2213.153,-1339.964 	"/>
	<g>
		<g>
			<path fill="#F7901E" d="M-1814.383-1271.5l-32.79,260.536l284.703-186.427L-1814.383-1271.5z M-1774.312-1211.289l100.765,29.644
				l-113.881,74.57L-1774.312-1211.289z"/>
		</g>
		<g>
			<polygon fill="#D32E2E" points="-1574.666,-1100.489 -1562.47,-1197.391 -1847.173,-1010.964 -1595.26,-936.858 
				-1585.589,-1013.701 -1610.339,-992.214 -1735.021,-1025.078 -1593.343,-1123.476 			"/>
		</g>
	</g>
	<g>
		<g>
			<path fill="#F7901E" d="M-2274.383-783.5l-32.79,260.536l284.703-186.427L-2274.383-783.5z M-2234.312-723.289l100.765,29.645
				l-113.881,74.57L-2234.312-723.289z"/>
		</g>
		<g>
			<polygon fill="#D32E2E" points="-2034.666,-612.488 -2022.47,-709.391 -2307.173,-522.964 -2055.26,-448.858 -2045.589,-525.701 
				-2070.339,-504.214 -2195.021,-537.078 -2053.343,-635.477 			"/>
		</g>
	</g>
</g>
<g id="Layer_3">
	<path fill="#FAFBFB" d="M240.347,57.253L56.917,4.688l0.375,1.375L56.417,7l-31.25,191.155L240.347,57.253z M80.216,46.748
		l76.168,22.407l-86.083,56.368L80.216,46.748z"/>
	<polygon fill="#BDBDBD" points="9.665,199.719 9.674,199.721 220.342,249.776 30.204,193.832 	"/>
	<g>
		<polygon fill="#ED6D23" points="-2274.746,-780.615 -2334.349,-515.157 -2307.142,-522.955 		"/>
		<polygon fill="#B72025" points="-2307.126,-522.964 -2334.333,-515.166 -2055.26,-448.858 		"/>
	</g>
	<g>
		<g>
			<g>
				<path fill="#F7901E" d="M-1259.305-1216.002l-32.79,260.536l284.703-186.427L-1259.305-1216.002z M-1219.233-1155.792
					l100.765,29.644l-113.881,74.57L-1219.233-1155.792z"/>
			</g>
			<g>
				<polygon fill="#D32E2E" points="-1019.588,-1044.991 -1007.392,-1141.893 -1292.095,-955.466 -1040.182,-881.361 
					-1030.511,-958.204 -1055.261,-936.716 -1179.942,-969.581 -1038.265,-1067.979 				"/>
			</g>
		</g>
		<g>
			<g>
				<path fill="#F7901E" d="M-1259.305-835.997l-32.79,260.536l284.703-186.427L-1259.305-835.997z M-1219.233-775.786
					l100.765,29.645l-113.881,74.57L-1219.233-775.786z"/>
			</g>
			<g>
				<polygon fill="#D32E2E" points="-1019.588,-664.985 -1007.392,-761.888 -1292.095,-575.461 -1040.182,-501.355 
					-1030.511,-578.198 -1055.261,-556.711 -1179.942,-589.575 -1038.265,-687.974 				"/>
			</g>
		</g>
		<g>
			<polygon fill="#ED6D23" points="-1259.668,-833.112 -1319.271,-567.654 -1292.063,-575.452 			"/>
			<polygon fill="#B72025" points="-1292.048,-575.461 -1319.255,-567.663 -1040.182,-501.355 			"/>
		</g>
	</g>
	<g>
		<g>
			<path fill="#D32E2E" d="M-842.275-1216.002l-32.79,260.536l284.703-186.427L-842.275-1216.002z M-802.204-1155.792
				l100.765,29.644l-113.881,74.57L-802.204-1155.792z"/>
		</g>
		<g>
			<polygon fill="#F9A01B" points="-602.559,-1044.991 -590.362,-1141.893 -875.065,-955.466 -623.152,-881.361 -613.481,-958.204 
				-638.231,-936.716 -762.913,-969.581 -621.235,-1067.979 			"/>
		</g>
	</g>
	<g>
		<g>
			<path fill="#D32E2E" d="M-842.275-835.997l-32.79,260.536l284.703-186.427L-842.275-835.997z M-802.204-775.786l100.765,29.645
				l-113.881,74.57L-802.204-775.786z"/>
		</g>
		<g>
			<polygon fill="#F8981D" points="-602.559,-664.985 -590.362,-761.888 -875.065,-575.461 -623.152,-501.355 -613.481,-578.198 
				-638.231,-556.711 -762.913,-589.575 -621.235,-687.974 			"/>
		</g>
	</g>
	<g>
		<polygon fill="#B72025" points="-842.639,-833.112 -902.241,-567.654 -875.034,-575.452 		"/>
		<polygon fill="#ED6D23" points="-875.019,-575.461 -902.226,-567.663 -623.152,-501.355 		"/>
	</g>
	<g>
		<g>
			<path fill="#434343" d="M-425.246-1216.002l-32.79,260.536l284.703-186.427L-425.246-1216.002z M-385.175-1155.792
				l100.765,29.644l-113.881,74.57L-385.175-1155.792z"/>
		</g>
		<g>
			<polygon fill="#D32E2E" points="-185.529,-1044.991 -173.333,-1141.893 -458.036,-955.466 -206.123,-881.361 -196.452,-958.204 
				-221.202,-936.716 -345.884,-969.581 -204.206,-1067.979 			"/>
		</g>
	</g>
	<g>
		<g>
			<path fill="#434343" d="M-425.246-835.997l-32.79,260.536l284.703-186.427L-425.246-835.997z M-385.175-775.786l100.765,29.645
				l-113.881,74.57L-385.175-775.786z"/>
		</g>
		<g>
			<polygon fill="#D32E2E" points="-185.529,-664.985 -173.333,-761.888 -458.036,-575.461 -206.123,-501.355 -196.452,-578.198 
				-221.202,-556.711 -345.884,-589.575 -204.206,-687.974 			"/>
		</g>
	</g>
	<g>
		<polygon fill="#212121" points="-425.609,-833.112 -485.212,-567.654 -458.005,-575.452 		"/>
		<polygon fill="#B72025" points="-457.989,-575.461 -485.196,-567.663 -206.123,-501.355 		"/>
	</g>
	<g>
		<path fill="#488FCC" d="M18.633-1216.002l-32.79,260.536l284.703-186.427L18.633-1216.002z M58.704-1155.792l100.765,29.644
			l-113.881,74.57L58.704-1155.792z"/>
	</g>
	<g>
		<polygon fill="#33439B" points="258.35,-1044.991 270.546,-1141.893 -14.157,-955.466 237.756,-881.361 247.427,-958.204 
			222.677,-936.716 97.995,-969.581 239.673,-1067.979 		"/>
	</g>
	<g>
		<path fill="#488FCC" d="M18.633-835.997l-32.79,260.536l284.703-186.427L18.633-835.997z M58.704-775.786l100.765,29.645
			l-113.881,74.57L58.704-775.786z"/>
	</g>
	<g>
		<polygon fill="#33439B" points="258.35,-664.985 270.546,-761.888 -14.157,-575.461 237.756,-501.355 247.427,-578.198 
			222.677,-556.711 97.995,-589.575 239.673,-687.974 		"/>
	</g>
	<polygon fill="#2B66B1" points="18.27,-833.112 -41.333,-567.654 -14.126,-575.452 	"/>
	<polygon fill="#2D3079" points="-14.11,-575.461 -41.317,-567.663 237.756,-501.355 	"/>
	<g>
		<g>
			<path fill="#488FCC" d="M-237.354,1.234l-24.255,192.716L-51.018,56.052L-237.354,1.234z M-207.715,45.772l74.535,21.927
				l-84.237,55.159L-207.715,45.772z"/>
		</g>
		<g>
			<polygon fill="#33439B" points="-60.04,127.729 -51.018,56.052 -261.609,193.95 -75.272,248.766 -68.119,191.926 
				-86.426,207.819 -178.651,183.51 -73.854,110.726 			"/>
		</g>
		<polygon fill="#2B66B1" points="-237.623,3.369 -281.711,199.726 -261.586,193.956 		"/>
		<polygon fill="#2D3079" points="-261.574,193.95 -281.699,199.718 -75.272,248.766 		"/>
	</g>
	<g>
		<path fill="#2C98D4" d="M435.662-1216.002l-32.79,260.536l284.703-186.427L435.662-1216.002z M475.733-1155.792l100.765,29.644
			l-113.881,74.57L475.733-1155.792z"/>
	</g>
	<g>
		<polygon fill="#B8D54B" points="675.379,-1044.991 687.575,-1141.893 402.872,-955.466 654.785,-881.361 664.456,-958.204 
			639.706,-936.716 515.024,-969.581 656.702,-1067.979 		"/>
	</g>
	<g>
		<path fill="#2C98D4" d="M435.662-835.997l-32.79,260.536l284.703-186.427L435.662-835.997z M475.733-775.786l100.765,29.645
			l-113.881,74.57L475.733-775.786z"/>
	</g>
	<g>
		<polygon fill="#B8D54B" points="675.379,-664.985 687.575,-761.888 402.872,-575.461 654.785,-501.355 664.456,-578.198 
			639.706,-556.711 515.024,-589.575 656.702,-687.974 		"/>
	</g>
	<polygon fill="#0277BD" points="435.299,-833.112 375.696,-567.654 402.903,-575.452 	"/>
	<polygon fill="#7CB342" points="402.919,-575.461 375.712,-567.663 654.785,-501.355 	"/>
	<g>
		<path fill="#8BC249" d="M852.691-1216.002l-32.79,260.536l284.703-186.427L852.691-1216.002z M892.763-1155.792l100.765,29.644
			l-113.881,74.57L892.763-1155.792z"/>
	</g>
	<g>
		<polygon fill="#00796B" points="1092.408,-1044.991 1104.604,-1141.893 819.901,-955.466 1071.814,-881.361 1081.485,-958.204 
			1056.735,-936.716 932.054,-969.581 1073.731,-1067.979 		"/>
	</g>
	<g>
		<path fill="#8BC249" d="M852.691-835.997l-32.79,260.536l284.703-186.427L852.691-835.997z M892.763-775.786l100.765,29.645
			l-113.881,74.57L892.763-775.786z"/>
	</g>
	<g>
		<polygon fill="#00796B" points="1092.408,-664.985 1104.604,-761.888 819.901,-575.461 1071.814,-501.355 1081.485,-578.198 
			1056.735,-556.711 932.054,-589.575 1073.731,-687.974 		"/>
	</g>
	<polygon fill="#679F42" points="852.328,-833.112 792.726,-567.654 819.933,-575.452 	"/>
	<polygon fill="#014D41" points="819.948,-575.461 792.741,-567.663 1071.814,-501.355 	"/>
	<g>
		<polygon fill="none" points="83.649,45.772 73.947,122.858 158.185,67.699 		"/>
		<polygon fill="#EEEEEE" points="53.741,3.369 53.741,3.371 53.741,3.37 		"/>
		<g>
			<polygon fill="none" points="83.649,45.772 73.947,122.858 158.185,67.699 			"/>
			<g>
				<polygon fill="none" points="83.649,45.772 73.947,122.858 158.185,67.699 				"/>
				<path fill="#FAFBFB" d="M240.347,56.052L54.01,1.234L53.741,3.37v0.001l-23.96,190.562L240.347,56.052z M83.649,45.772
					l74.535,21.927l-84.237,55.159L83.649,45.772z"/>
				<polygon fill="#EEEEEE" points="231.324,127.729 240.347,56.052 29.781,193.933 53.741,3.371 9.653,199.726 9.674,199.72 
					9.665,199.718 29.79,193.95 216.092,248.766 223.245,191.926 204.938,207.819 112.713,183.51 217.51,110.726 				"/>
				<polygon fill="#BDBDBD" points="9.665,199.718 9.674,199.72 216.092,248.766 29.79,193.95 				"/>
			</g>
		</g>
	</g>
</g>
</svg>
